<svg xmlns="http://www.w3.org/2000/svg" xmlns:xlink="http://www.w3.org/1999/xlink" version="1.1" x="0px" y="0px" viewBox="0 0 100 125" enable-background="new 0 0 100 100" xml:space="preserve"><g><path fill="#000000" d="M66.803,57.236c0,0.59-0.226,1.18-0.676,1.631c-0.901,0.9-2.36,0.9-3.262,0L49.981,45.983L37.093,58.867   c-0.901,0.9-2.36,0.898-3.263,0c-0.898-0.903-0.898-2.362,0-3.264l14.52-14.517c0.902-0.897,2.361-0.897,3.263,0l14.515,14.517   C66.577,56.054,66.803,56.645,66.803,57.236z"/><path fill="#000000" d="M94.957,49.979c0,24.8-20.179,44.978-44.978,44.978C25.179,94.957,5,74.779,5,49.979   C5,25.177,25.179,5,49.979,5C74.778,5,94.957,25.177,94.957,49.979z M9.613,49.979c0,22.257,18.108,40.365,40.366,40.365   s40.365-18.107,40.365-40.365c0-22.261-18.107-40.366-40.365-40.366S9.613,27.718,9.613,49.979z"/></g><text x="0" y="115" fill="#000000" font-size="5px" font-weight="bold" font-family="'Helvetica Neue', Helvetica, Arial-Unicode, Arial, Sans-serif">Created by sunbzy</text><text x="0" y="120" fill="#000000" font-size="5px" font-weight="bold" font-family="'Helvetica Neue', Helvetica, Arial-Unicode, Arial, Sans-serif">from the Noun Project</text></svg>